:SAMPLES-PER-SECOND 30
:FULLY-SPECIFIED
:DEGREES
155
root  -78.014 41.1325 6.94679 105.921 -88.0807 -110.505
RightUpLeg  -1.7429 -9.89898 -3.28396
RightLeg  12.4059 -3.43461 4.74282
RightFoot  -4.40567 0.0962355 -2.07982
RightToes  -1.16417e-010 0 -3.6325e-017
Spine  9.63821 1.18659 3.62042
Spine1  0.195737 1.71663 0.000165048
HEad  -0.0972292 14.3268 -5.07367
LeftShoulder1  2.81096 -5.20226 -26.0204
LeftArm  -22.8934 34.7047 -16.0907
LeftForeArm  5.30536 -11.0085 0.440626
LeftHand  -0.244104 0.0205437 5.32207
RightShoulder  2.03468 3.51388 22.7581
RightArm  -27.3542 -24.0875 16.4862
RightForeArm  -43.0867 14.0519 4.84777
RightHand  -3.53388 10.7847 -25.2816
LeftUpLeg  -7.98221 11.9029 5.31712
LeftLeg  20.4493 3.35395 1.68876
LeftFoot  -8.25793 0.114429 -2.48682
LeftToes  4.18335e-011 -7.14095e-012 4.81992e-012
156
root  -78.3461 41.2352 6.94964 127.809 -87.97 -132.55
RightUpLeg  -0.564417 -9.45523 -3.4722
RightLeg  11.2382 -3.07296 4.59232
RightFoot  -4.18991 0.0985994 -2.03229
RightToes  -1.16417e-010 0 -3.6325e-017
Spine  8.79883 1.33347 3.7918
Spine1  0.0669045 2.05272 -1.23634
HEad  2.34973 15.6643 -4.21156
LeftShoulder1  1.89887 -3.30835 -21.4526
LeftArm  -22.8623 33.2733 -16.6069
LeftForeArm  6.43887 -9.5175 0.712518
LeftHand  -0.244104 0.0205437 5.32207
RightShoulder  1.70425 2.75002 20.8794
RightArm  -25.0049 -23.1937 13.0377
RightForeArm  -38.7473 12.3773 4.69565
RightHand  -2.90452 9.11293 -23.2798
LeftUpLeg  -5.32201 9.9227 4.74486
LeftLeg  14.9973 4.80875 1.69107
LeftFoot  -5.3853 0.0948163 -1.1891
LeftToes  4.18335e-011 -7.14095e-012 4.81992e-012
157
root  -78.6119 41.3631 6.92505 145.615 -88.7 -150.342
RightUpLeg  0.311029 -9.31671 -4.19957
RightLeg  10.2974 -3.25103 4.21694
RightFoot  -4.05968 0.0826304 -1.72496
RightToes  -1.16417e-010 0 -3.6325e-017
Spine  8.08242 1.2566 2.27282
Spine1  0.104505 1.80542 -0.910037
HEad  3.89343 16.8704 -3.40551
LeftShoulder1  1.43307 -2.23252 -18.3263
LeftArm  -23.3391 32.1461 -15.933
LeftForeArm  6.86044 -9.67923 0.775367
LeftHand  -0.244104 0.0205437 5.32207
RightShoulder  1.35122 1.94066 18.2751
RightArm  -23.6467 -22.0842 10.6831
RightForeArm  -33.4154 11.0809 4.47343
RightHand  -2.59499 8.19585 -22.2402
LeftUpLeg  -3.98789 7.5238 3.79348
LeftLeg  13.0203 6.94723 1.66073
LeftFoot  -3.70987 0.0325293 -0.135614
LeftToes  4.18335e-011 -7.14095e-012 4.81992e-012
158
root  -78.8335 41.4952 6.89432 -162.254 -89.5326 157.671
RightUpLeg  1.06331 -9.42172 -5.12024
RightLeg  9.32981 -3.65629 3.97168
RightFoot  -3.85095 0.0675266 -1.40133
RightToes  -1.16417e-010 0 -3.6325e-017
Spine  7.4822 0.990672 0.565385
Spine1  -0.0441304 1.39105 -0.688504
HEad  5.37884 17.8486 -2.43602
LeftShoulder1  1.24127 -2.0173 -15.6025
LeftArm  -23.1392 31.2454 -14.0206
LeftForeArm  8.3957 -10.7295 0.51349
LeftHand  -0.244104 0.0205437 5.32207
RightShoulder  1.08616 1.30473 15.8642
RightArm  -22.8799 -21.1818 8.81467
RightForeArm  -28.205 10.0962 4.14835
RightHand  -2.52986 7.87027 -22.2051
LeftUpLeg  -2.61166 7.39151 3.28448
LeftLeg  10.7681 6.89476 0.489261
LeftFoot  -2.62903 -0.0116011 0.362825
LeftToes  4.18335e-011 -7.14095e-012 4.81992e-012
159
root  -79.0447 41.6093 6.89332 -86.0756 -89.2351 81.6473
RightUpLeg  1.90722 -9.4289 -5.76417
RightLeg  8.05849 -3.90703 3.90921
RightFoot  -3.4593 0.0584336 -1.20412
RightToes  -1.16417e-010 0 -3.6325e-017
Spine  6.9235 0.812332 -0.172494
Spine1  -0.408009 1.24958 -1.2751
HEad  7.13509 18.5562 -1.56364
LeftShoulder1  1.12544 -2.11693 -12.8931
LeftArm  -22.0383 29.57 -11.481
LeftForeArm  11.3616 -11.0996 0.157375
LeftHand  -0.244104 0.0205437 5.32207
RightShoulder  0.910266 0.896276 13.7665
RightArm  -22.0012 -20.254 6.60734
RightForeArm  -22.8459 8.89591 3.73122
RightHand  -2.4154 7.24289 -22.2427
LeftUpLeg  -0.682835 6.9244 3.55563
LeftLeg  7.19094 7.07945 -1.73785
LeftFoot  -1.44729 -0.0615441 0.808998
LeftToes  4.18335e-011 -7.14095e-012 4.81992e-012
160
root  -79.2537 41.6981 6.93043 -83.5472 -88.8364 79.2137
RightUpLeg  2.86173 -9.28379 -6.13378
RightLeg  6.6142 -4.06825 3.80391
RightFoot  -3.08834 0.0470463 -1.01282
RightToes  -1.16417e-010 0 -3.6325e-017
Spine  6.21077 0.779886 -0.445521
Spine1  -0.536562 1.23662 -1.63285
HEad  8.86142 19.0264 -1.10719
LeftShoulder1  1.03453 -2.1755 -10.9268
LeftArm  -21.8832 27.5387 -9.29636
LeftForeArm  12.4783 -11.6138 -0.0201196
LeftHand  -0.244104 0.0205437 5.32207
RightShoulder  0.759302 0.603953 11.3512
RightArm  -21.122 -19.0424 4.27176
RightForeArm  -18.0815 7.61327 3.33684
RightHand  -2.19916 6.17934 -22.1126
LeftUpLeg  1.07691 5.62518 3.67157
LeftLeg  3.996 8.07261 -3.35213
LeftFoot  -0.381805 -0.127872 1.35912
LeftToes  4.18335e-011 -7.14095e-012 4.81992e-012
